/* XPM */
static char * caleydo16_xpm[] = {
"16 16 119 2",
"  	c None",
". 	c #662C91",
"+ 	c #662D91",
"@ 	c #ED1C24",
"# 	c #ED1D24",
"$ 	c #6D3895",
"% 	c #EE1D25",
"& 	c #684499",
"* 	c #74449B",
"= 	c #EE362B",
"- 	c #825AA5",
"; 	c #825AA6",
"> 	c #825BA6",
", 	c #F04834",
"' 	c #F04F34",
") 	c #F05534",
"! 	c #76787A",
"~ 	c #76787B",
"{ 	c #77787B",
"] 	c #3087C0",
"^ 	c #77797B",
"/ 	c #787A7D",
"( 	c #797B7D",
"_ 	c #7A7B7E",
": 	c #00A650",
"< 	c #00A651",
"[ 	c #7E7F82",
"} 	c #00A957",
"| 	c #7E8083",
"1 	c #7F8184",
"2 	c #F26649",
"3 	c #2899CB",
"4 	c #838588",
"5 	c #848689",
"6 	c #86888A",
"7 	c #00A8D8",
"8 	c #86888B",
"9 	c #87888B",
"0 	c #00AF97",
"a 	c #87898B",
"b 	c #87898C",
"c 	c #888A8D",
"d 	c #00B38F",
"e 	c #898B8E",
"f 	c #00ACDC",
"g 	c #00ADDC",
"h 	c #00ADDD",
"i 	c #8A8C8E",
"j 	c #8A8C8F",
"k 	c #8C8E91",
"l 	c #00B0DE",
"m 	c #00B2CD",
"n 	c #F47936",
"o 	c #8D8F92",
"p 	c #00B3D6",
"q 	c #A286BE",
"r 	c #909295",
"s 	c #909395",
"t 	c #919395",
"u 	c #919396",
"v 	c #2BB573",
"w 	c #2BB673",
"x 	c #929497",
"y 	c #2CB674",
"z 	c #929597",
"A 	c #A48CBC",
"B 	c #939597",
"C 	c #939598",
"D 	c #F58337",
"E 	c #779BCA",
"F 	c #96989B",
"G 	c #97999C",
"H 	c #979A9C",
"I 	c #989A9C",
"J 	c #989A9D",
"K 	c #F68B1E",
"L 	c #F68B1F",
"M 	c #F78B1F",
"N 	c #F68D38",
"O 	c #9C9EA1",
"P 	c #4ABA7E",
"Q 	c #F7912B",
"R 	c #A0A2A5",
"S 	c #F8972B",
"T 	c #A6A5AE",
"U 	c #5FBF88",
"V 	c #A5A7AA",
"W 	c #AAACAE",
"X 	c #ABADB0",
"Y 	c #6EC5A4",
"Z 	c #ECA68D",
"` 	c #B3B5B7",
" .	c #BDB8C8",
"..	c #BCBEC0",
"+.	c #99CBA9",
"@.	c #E5B7A5",
"#.	c #FDBD39",
"$.	c #C2C4C6",
"%.	c #C4C6C8",
"&.	c #AFCFB9",
"*.	c #FFCA39",
"=.	c #CBCDCE",
"-.	c #CCCDCF",
";.	c #C7D0CB",
">.	c #D4D5D7",
",.	c #FFD74B",
"'.	c #BAE4F3",
").	c #BAE5F3",
"!.	c #FFE918",
"~.	c #FFF100",
"{.	c #FFF200",
"].	c #CAEAF5",
"^.	c #E9E6D0",
"/.	c #FFF312",
"(.	c #FFF560",
"_.	c #F5EFC3",
":.	c #FFF680",
"<.	c #FFF799",
"[.	c #FFFFFF",
"O J I J I H G I G H I G G G H O ",
"G C C B c b a b b 8 9 e B C B G ",
"J C z j >.[.[.[.[.[.[.-.c C C J ",
"G x C V 2 N K L M K #.<.F u B I ",
"G B k @.# ) L K M Q !.{.^.4 C I ",
"G u ` , @ # D L L *.{.{.:.X r H ",
"I k Z @ % @ ' Q S /.{.{.{._.6 I ",
"x =.= @ # @ # n ,.{.{.{.~.(...s ",
"i $.- - > ; - E Y y w v y U %.e ",
"F 5 q + . + $ 7 m < < < : +.[ C ",
"J 8 T $ + . ] g g d < < v W a G ",
"G C 1 A + & l h g p } : &._ u I ",
"G C k R * 3 f f g g 0 P t e C G ",
"H C C |  .'.).).'.).].;.[ C C I ",
"H C x r / ! { ^ { { ~ ( o z C I ",
"O H J H G G J H I G G H H J H O "};
