/* XPM */
static char * caleydo_48_xpm[] = {
"48 48 392 2",
"  	c None",
". 	c #433F41",
"+ 	c #423F40",
"@ 	c #413E3F",
"# 	c #423E3F",
"$ 	c #3F3C3E",
"% 	c #3F3B3D",
"& 	c #0F0E0E",
"* 	c #0F0F0F",
"= 	c #393638",
"- 	c #222121",
"; 	c #403C3E",
"> 	c #312E30",
", 	c #444042",
"' 	c #383537",
") 	c #3B3739",
"! 	c #413D3F",
"~ 	c #1A1A1B",
"{ 	c #E7272E",
"] 	c #F57B13",
"^ 	c #F57A10",
"/ 	c #F47910",
"( 	c #F67A0F",
"_ 	c #E57515",
": 	c #EEE312",
"< 	c #322F31",
"[ 	c #444143",
"} 	c #312E2F",
"| 	c #C52128",
"1 	c #EB171F",
"2 	c #BC1D23",
"3 	c #E27619",
"4 	c #F57A11",
"5 	c #F37910",
"6 	c #F47A11",
"7 	c #F47A10",
"8 	c #F57B12",
"9 	c #8E4910",
"0 	c #F2E708",
"a 	c #FDF002",
"b 	c #3E3A3B",
"c 	c #3E3B3D",
"d 	c #474345",
"e 	c #3C393B",
"f 	c #131919",
"g 	c #E71B23",
"h 	c #EA1820",
"i 	c #E41921",
"j 	c #F07A14",
"k 	c #F37A11",
"l 	c #F77B10",
"m 	c #D06B13",
"n 	c #240A0A",
"o 	c #B6B00F",
"p 	c #FEF100",
"q 	c #E0D509",
"r 	c #3F3C3D",
"s 	c #383536",
"t 	c #2E2C2D",
"u 	c #D11C24",
"v 	c #EA171F",
"w 	c #E91820",
"x 	c #C81A21",
"y 	c #DD7216",
"z 	c #EE7812",
"A 	c #874510",
"B 	c #F3E705",
"C 	c #FFF200",
"D 	c #FAED02",
"E 	c #A59D10",
"F 	c #3E3B3C",
"G 	c #282727",
"H 	c #454143",
"I 	c #3B383A",
"J 	c #050F0F",
"K 	c #E81B23",
"L 	c #E9171F",
"M 	c #E11921",
"N 	c #86141D",
"O 	c #EE7813",
"P 	c #D06A13",
"Q 	c #0C030C",
"R 	c #C7BF0A",
"S 	c #FFF201",
"T 	c #E2D705",
"U 	c #3E3A3C",
"V 	c #2A2829",
"W 	c #D91D24",
"X 	c #EB1820",
"Y 	c #C8191F",
"Z 	c #DA7319",
"` 	c #EC7611",
" .	c #763E11",
"..	c #565908",
"+.	c #F7EB05",
"@.	c #FBEE03",
"#.	c #B4AA0B",
"$.	c #323031",
"%.	c #3B3839",
"&.	c #EB1C24",
"*.	c #E41A22",
"=.	c #8F121A",
"-.	c #EF7812",
";.	c #F37911",
">.	c #CE6A14",
",.	c #000507",
"'.	c #D1C70A",
").	c #FFF401",
"!.	c #FFF400",
"~.	c #E1D607",
"{.	c #403D3E",
"].	c #1D1C1D",
"^.	c #E11F27",
"/.	c #ED171F",
"(.	c #C91B21",
"_.	c #CD6F1C",
":.	c #F07912",
"<.	c #532E11",
"[.	c #666607",
"}.	c #FEF107",
"|.	c #FFF302",
"1.	c #AEA60A",
"2.	c #423E40",
"3.	c #343133",
"4.	c #EC1A23",
"5.	c #EB1A22",
"6.	c #92161C",
"7.	c #EC7916",
"8.	c #F87B10",
"9.	c #B35F16",
"0.	c #E3D80D",
"a.	c #FFF500",
"b.	c #EBE006",
"c.	c #E82027",
"d.	c #EC171F",
"e.	c #D81B23",
"f.	c #F67C13",
"g.	c #EB7714",
"h.	c #281708",
"i.	c #FFF503",
"j.	c #FFF600",
"k.	c #BAB10D",
"l.	c #272525",
"m.	c #EC1820",
"n.	c #ED1820",
"o.	c #A31B20",
"p.	c #E3771A",
"q.	c #FE7F11",
"r.	c #844813",
"s.	c #F4E80C",
"t.	c #FFF300",
"u.	c #FBEF04",
"v.	c #2F2C2E",
"w.	c #444142",
"x.	c #393637",
"y.	c #0B0B0B",
"z.	c #F57C14",
"A.	c #D56F17",
"B.	c #180904",
"C.	c #B1A815",
"D.	c #D8CD0D",
"E.	c #3A3739",
"F.	c #201E1F",
"G.	c #DB242B",
"H.	c #EA1720",
"I.	c #C01F25",
"J.	c #D7721B",
"K.	c #F67A10",
"L.	c #FA7E13",
"M.	c #69380E",
"N.	c #FBEF07",
"O.	c #7F7A13",
"P.	c #2F2D2E",
"Q.	c #333031",
"R.	c #EB1921",
"S.	c #68181C",
"T.	c #F47D17",
"U.	c #C06313",
"V.	c #1A0706",
"W.	c #CFC50F",
"X.	c #EDE109",
"Y.	c #3D3A3C",
"Z.	c #DE232A",
"`.	c #E21A21",
" +	c #DF1921",
".+	c #C71E25",
"++	c #CB6D1B",
"@+	c #753B0E",
"#+	c #F5E908",
"$+	c #F4E704",
"%+	c #F3E704",
"&+	c #F3E703",
"*+	c #A09A16",
"=+	c #343032",
"-+	c #8F191A",
";+	c #821717",
">+	c #811718",
",+	c #841718",
"'+	c #B8A70F",
")+	c #95880C",
"!+	c #90840B",
"~+	c #90840C",
"{+	c #887D10",
"]+	c #3A3638",
"^+	c #312F30",
"/+	c #5D278D",
"(+	c #59208C",
"_+	c #58208B",
":+	c #572385",
"<+	c #06A653",
"[+	c #04A551",
"}+	c #138047",
"|+	c #1E1C1D",
"1+	c #3D393B",
"2+	c #561D8B",
"3+	c #571D8C",
"4+	c #2F1643",
"5+	c #08AFE0",
"6+	c #0994BD",
"7+	c #0F9A51",
"8+	c #00A64F",
"9+	c #069E50",
"0+	c #070B09",
"a+	c #343132",
"b+	c #333132",
"c+	c #572685",
"d+	c #561D8A",
"e+	c #571D8B",
"f+	c #571E8B",
"g+	c #4E2177",
"h+	c #000600",
"i+	c #0F92B9",
"j+	c #00AEE2",
"k+	c #03ADDF",
"l+	c #0B5B75",
"m+	c #05A753",
"n+	c #00A54F",
"o+	c #00A550",
"p+	c #00A650",
"q+	c #00A850",
"r+	c #0F5630",
"s+	c #1B191A",
"t+	c #58208D",
"u+	c #571E8A",
"v+	c #581F8C",
"w+	c #1C1027",
"x+	c #07AFE1",
"y+	c #00ABDF",
"z+	c #00ADE1",
"A+	c #0A97C1",
"B+	c #128C4D",
"C+	c #00A750",
"D+	c #0B924C",
"E+	c #010000",
"F+	c #444043",
"G+	c #2F2C2D",
"H+	c #52257B",
"I+	c #571E8C",
"J+	c #591E8F",
"K+	c #411D62",
"L+	c #0FA0CC",
"M+	c #00ADE0",
"N+	c #00ABDE",
"O+	c #01B0E4",
"P+	c #0E6983",
"Q+	c #09A353",
"R+	c #02A751",
"S+	c #0A3921",
"T+	c #3C393A",
"U+	c #1A1819",
"V+	c #3D3A3B",
"W+	c #58228A",
"X+	c #561E8A",
"Y+	c #542084",
"Z+	c #140416",
"`+	c #02AFE1",
" @	c #00ACDF",
".@	c #00ACDE",
"+@	c #00ACE0",
"@@	c #08A4D2",
"#@	c #02A752",
"$@	c #00AB52",
"%@	c #0B7940",
"&@	c #2D2B2B",
"*@	c #581F8D",
"=@	c #5A208F",
"-@	c #34164E",
";@	c #09A7D6",
">@	c #1086A8",
",@	c #0C9D52",
"'@	c #00A74F",
")@	c #069E4F",
"!@	c #06311B",
"~@	c #434041",
"{@	c #0D0C0C",
"]@	c #363334",
"^@	c #562386",
"/@	c #581D8D",
"(@	c #4D1E78",
"_@	c #160010",
":@	c #1283A4",
"<@	c #02A9DA",
"[@	c #05A653",
"}@	c #01AB53",
"|@	c #086736",
"1@	c #272425",
"2@	c #311249",
"3@	c #04A7D8",
"4@	c #0B99C2",
"5@	c #0A974E",
"6@	c #059249",
"7@	c #05321B",
"8@	c #3A3738",
"9@	c #532082",
"0@	c #491B72",
"a@	c #15000A",
"b@	c #0B8FB4",
"c@	c #01ACDE",
"d@	c #01A8D9",
"e@	c #12617E",
"f@	c #06A351",
"g@	c #02A651",
"h@	c #076736",
"i@	c #161515",
"j@	c #282922",
"k@	c #57208A",
"l@	c #551E86",
"m@	c #321146",
"n@	c #03A8D9",
"o@	c #079AC6",
"p@	c #09954B",
"q@	c #01A650",
"r@	c #049047",
"s@	c #082817",
"t@	c #302E2F",
"u@	c #522082",
"v@	c #491C72",
"w@	c #0B0A0B",
"x@	c #0893BB",
"y@	c #01ADE0",
"z@	c #02A7D8",
"A@	c #0B7194",
"B@	c #04A250",
"C@	c #01A34F",
"D@	c #0A6335",
"E@	c #2B2B27",
"F@	c #571F8A",
"G@	c #561E89",
"H@	c #291135",
"I@	c #035362",
"J@	c #05ABDD",
"K@	c #0799C4",
"L@	c #0E904A",
"M@	c #069049",
"N@	c #070C0A",
"O@	c #322D30",
"P@	c #242223",
"Q@	c #51217C",
"R@	c #561D8C",
"S@	c #461C6C",
"T@	c #00120E",
"U@	c #0A9AC4",
"V@	c #02ABDD",
"W@	c #0A7395",
"X@	c #07A352",
"Y@	c #01A751",
"Z@	c #0D4929",
"`@	c #373435",
" #	c #302E2E",
".#	c #5A248C",
"+#	c #150D1E",
"@#	c #08627A",
"##	c #03B1E5",
"$#	c #00B0E4",
"%#	c #00B1E6",
"&#	c #15854A",
"*#	c #0C8B49",
"=#	c #050001",
"-#	c #1F1D1E",
";#	c #0F7391",
">#	c #0D5E76",
",#	c #0D5C74",
"'#	c #0C5C74",
")#	c #0E6079",
"!#	c #383436",
"~#	c #434042",
"{#	c #3C383A",
"]#	c #1A1919",
"^#	c #454243",
"/#	c #474445",
"(#	c #363234",
"_#	c #111011",
"                                                                                                ",
"                                                                                                ",
"                                                                                                ",
"                                                                                                ",
"                        . + @ @ @ @ @ @ @ @ @ @ @ @ @ @ @ @ @ @ @ @ # $                         ",
"                      . % & *                                         % =                       ",
"                      . -                                               ; >                     ",
"                    , '                                                 ; )                     ",
"                    ! ~   {     ] ^ / / / / / / / / / / / / ( _     :     ! <                   ",
"                  [ }   | 1 2   3 4 5 6 6 6 6 6 6 6 6 6 6 7 8 9   0 a     b c                   ",
"                d e f   g h i     j 7 k 6 6 6 6 6 6 6 6 5 l m n o p p q     r s                 ",
"                ! t   u h v w x   y 4 / 6 6 6 6 6 6 6 k 7 z A   B C C D E   F ; G               ",
"              H I J   K v L h M N   O 7 k 6 6 6 6 6 6 5 4 P Q R S C C C T     ; U               ",
"              ; V   W X L w v X Y   Z k / 6 6 6 6 6 6 7 `  ...+.C C p C @.#.    % $.            ",
"            . %.    &.v w h h v *.=.  -.5 6 6 6 6 6 ;.7 >.,.'.).p C C p !.~.    ; %             ",
"          d {.].  ^.1 w h h h w /.(.  _.6 5 6 6 6 6 7 :.<.[.}.C p C C C C |.1.    % =           ",
"          2.3.    4.L h h h h h v 5.6.  7./ k 6 6 ;.8.9.  0.a.p C C C C p !.b.    $ U           ",
"        , % &   c.v w h h h h h w d.e.    f.5 6 6 ^ g.h.  i.C C C C C C C p j.k.    ! =         ",
"        , l.    m.L h h h h h h h v n.o.  p.^ k 5 q.r.  s.t.p C C C C C C p C u.      ; v.      ",
"      w.x.y.  &.v w h h h h h h h w v g     z./ l A.B.C.t.C C C C C C C C C p !.D.    r E.      ",
"      2.F.  G.1 L H.h h h h h h h h v 1 I.  J.K.L.M.  N.C p C C C C C C C C C C !.O.    ! P.    ",
"    w.Q.    R.v v v v v v v v v v v v v m.S.  T.U.V.W.C C C C C C C C C C C C C C X.    Y.U     ",
"  d Y.].  Z.`. + + + + + + + + + + + + + +.+  ++@+  #+$+%+%+%+%+%+%+%+%+%+%+%+%+%+&+*+    ; Q.  ",
"  , =+      -+;+>+>+>+>+>+>+>+>+>+>+>+>+>+,+        '+)+!+!+!+!+!+!+!+!+!+!+!+!+!+~+{+    r ;   ",
"  ! s                                                                                     . ]+  ",
"    ; ^+  /+(+_+_+_+_+_+_+_+_+_+_+_+_+_+_+:+        <+[+[+[+[+[+[+[+[+[+[+[+[+[+[+[+}+    . |+  ",
"    c 1+    2+2+2+2+2+2+2+2+2+2+2+2+2+2+3+4+  5+6+  7+8+8+8+8+8+8+8+8+8+8+8+8+8+8+9+0+  H a+    ",
"      {.b+  c+2+d+e+f+f+f+f+f+f+f+f+d+3+g+h+i+j+k+l+  m+n+o+p+p+p+p+p+p+p+p+p+p+q+r+  {.{.s+    ",
"      e ;     t+2+u+f+f+f+f+f+f+f+f+e+v+w+  x+y+z+A+  B+p+n+p+p+p+p+p+p+p+p+n+C+D+E+  F+G+      ",
"        r x.  H+I+d+f+f+f+f+f+f+f+d+J+K+  L+M+N+N+O+P+  Q+8+o+p+p+p+p+p+p+p+p+R+S+  w.T+U+      ",
"        V+; V   W+2+u+f+f+f+f+f+X+3+Y+Z+  `+N+ @.@+@@@    #@8+p+p+p+p+p+p+n+$@%@    @ &@        ",
"          r V+    *@d+e+f+f+f+f+d+=@-@  ;@ @.@ @ @N+j+>@  ,@'@o+p+p+p+p+o+C+)@!@  ~@%.{@        ",
"            % ]@  ^@e+u+f+f+f+X+/@(@_@:@ @N+ @ @ @ @ @<@    [@8+p+p+p+p+n+}@|@  % ; 1@          ",
"            {.U     (+d+f+f+f+e+_+2@  3@N+ @ @ @ @ @N+ @4@  5@C+n+p+p+o+C+6@7@  ! 8@            ",
"              {.8@  9@e+d+f+e+I+0@a@b@c@ @ @ @ @ @ @ @ @d@e@  f@8+n+n+p+g@h@  ; ! i@            ",
"              c U j@  k@e+d+f+l@m@  n@ @N+ @ @ @ @ @ @ @ @o@  p@q@8+8+p+r@s@  2.t@              ",
"                ! ]+  u@f+2+X+v@w@x@y@y+ @ @ @ @ @ @ @N+ @z@A@  B@p+p+C@D@  {.c y.              ",
"                  $ E@  F@u+G@H@I@J@ @N+ @ @ @ @ @ @ @ @N+z+K@  L@o+n+M@N@O@~@P@                ",
"                  r T+  Q@R@S@T@U@z+N+ @ @ @ @ @ @ @ @ @.@ @V@W@  X@Y@Z@  ~@`@                  ",
"                    ;  #  .#+#@###$#$#$#$#$#$#$#$#$#$#$#$#$#%#@@  &#*#=#x.! -#                  ",
"                    U ;         ;#>#,#,#,#,#,#,#,#,#,#,#,#,#'#)#        w.}                     ",
"                      % !#                                            ~#{#]#                    ",
"                      Y.; = ^#/#d d d d d d d d d d d d d d d d d /#d @ v.                      ",
"                        {#E.8@8@8@8@8@8@8@8@8@8@8@8@8@8@8@8@8@8@8@8@8@(#_#                      ",
"                                                                                                ",
"                                                                                                ",
"                                                                                                ",
"                                                                                                "};
