/* XPM */
static char *caleydo_48[] = {
/* columns rows colors chars-per-pixel */
"48 48 14 1 ",
"  c #EE2329",
". c #F47C20",
"X c #F47D20",
"o c #17A64F",
"O c #18A64F",
"+ c #19A64F",
"@ c #1AA64E",
"# c #1BA64E",
"$ c #FABC15",
"% c #FBBC15",
"& c #FABD15",
"* c #FCBC14",
"= c #10ACDF",
"- c None",
/* pixels */
"------------------------------------------------",
"------------------------------------------------",
"----------------------X-- ----------------------",
"---------------------XX--   --------------------",
"-------------------XXXX--    -------------------",
"-----------------XXXXXX--      -----------------",
"---------------XXXXXXXX--        ---------------",
"--------------XXXXXXXXX--          -------------",
"------------XXXXXXXXXXX--           ------------",
"----------XXXXXXXXXXXXX--             ----------",
"--------XXXXXXXXXXXXXXX--               --------",
"-------XXXXXXXXXXXXXXXX--                -------",
"------XXXXXXXXXXXXXXXXX--                 ------",
"-------XXXXXXXXXXXXXXXX--                -------",
"-----$---XXXXXXXXXXXXXX--              ---------",
"-----$$$---XXXXXXXXXXXX--             ----------",
"-----$$$$$--XXXXXXXXXXX--           ------------",
"-----$$$$$$---XXXXXXXXX--         --------------",
"-----$$$$$$$$---XXXXXXX--       ----------------",
"-----$$$$$$$$$$--XXXXXX--      -----------------",
"-----$$$$$$$$$$$$--XXXX--    -------------------",
"-----$$$$$$$$$$$$$---XX--  ---------------------",
"-----$$$$$$$$$$$$$$$----- ----------------------",
"-----$$$$$$$$$$$$$$$$$--------------------------",
"-----$$$$$$$$$$$$$$$$$--------------------------",
"-----$$$$$$$$$$$$$$$----------------------------",
"-----$$$$$$$$$$$$$*--##--==---------------------",
"-----$$$$$$$$$$$$--o###--====-------------------",
"-----$$$$$$$$$$---#####--=====------------------",
"-----$$$$$$$$---#######--=======----------------",
"-----$$$$$$*--#########--=========--------------",
"-----$$$$$---##########--===========------------",
"-----$$$---############--============-----------",
"-----$---##############--==============---------",
"-------################--================-------",
"------#################--=================------",
"------#################--=================------",
"--------###############--===============--------",
"----------#############--=============----------",
"------------###########--============-----------",
"-------------##########--==========-------------",
"---------------########--========---------------",
"-----------------######--======-----------------",
"-------------------####--=====------------------",
"--------------------###--===--------------------",
"----------------------#--=----------------------",
"------------------------------------------------",
"------------------------------------------------"
};
